# xmcd
#
# Track frame offsets: 
#        150
#        9863
#        25017
#        35609
#        45991
#        58327
#        69104
#        82012
#        92484
#        101907
#
# Disc length: 1449 seconds
#
# Revision: 0
# Processed by: cddbd v1.5.2PL0 Copyright (c) Steve Scherf et al.
# Submitted via: ExactAudioCopy v1.3
#
DISCID=7105a70a
DTITLE=Bluegrass Christmas Jamboree - O, Santa Where Art Thou - Disc 3
DYEAR=2002
DGENRE=Bluegrass
TTITLE0=Angels from the Realms of Glory
TTITLE1=O Holy Night
TTITLE2=We Three Kings
TTITLE3=Jingle Bell Rock
TTITLE4=What Child Is This?
TTITLE5=It Came Upon a Midnight Clear
TTITLE6=Grandma Got Run Over By a Reindeer
TTITLE7=Good King Wenceslas
TTITLE8=Up on the Housetop
TTITLE9=Suzy Snowflake
EXTD=
EXTT0=
EXTT1=
EXTT2=
EXTT3=
EXTT4=
EXTT5=
EXTT6=
EXTT7=
EXTT8=
EXTT9=
PLAYORDER=
